STARTFONT 2.1
FONT -FontForge-04b-Book-R-Normal--20-150-96-96-P-159-ISO10646-1
SIZE 15 96 96
FONTBOUNDINGBOX 19 20 0 -2
COMMENT "Generated by fontforge, http://fontforge.sourceforge.net"
COMMENT "2000 / yuji oshimoo  / 04@jp.org / www.04.jp.org"
STARTPROPERTIES 39
FOUNDRY "FontForge"
FAMILY_NAME "04b"
WEIGHT_NAME "Book"
SLANT "R"
SETWIDTH_NAME "Normal"
ADD_STYLE_NAME ""
PIXEL_SIZE 20
POINT_SIZE 150
RESOLUTION_X 96
RESOLUTION_Y 96
SPACING "P"
AVERAGE_WIDTH 159
CHARSET_REGISTRY "ISO10646"
CHARSET_ENCODING "1"
FONTNAME_REGISTRY ""
CHARSET_COLLECTIONS "ISO10646-1"
FONT_NAME "04b30"
FACE_NAME "04b 30"
COPYRIGHT "2000 / yuji oshimoo  / 04@jp.org / www.04.jp.org"
FONT_VERSION "Macromedia Fonographer 4.1J 01.5.8"
FONT_ASCENT 18
FONT_DESCENT 2
UNDERLINE_POSITION -3
UNDERLINE_THICKNESS 1
X_HEIGHT 13
CAP_HEIGHT 15
RAW_ASCENT 882
RAW_DESCENT 117
NORM_SPACE 16
RELATIVE_WEIGHT 40
RELATIVE_SETWIDTH 50
SUPERSCRIPT_X 0
SUPERSCRIPT_Y 9
SUPERSCRIPT_SIZE 13
SUBSCRIPT_X 0
SUBSCRIPT_Y 2
SUBSCRIPT_SIZE 13
AVG_LOWERCASE_WIDTH 158
AVG_UPPERCASE_WIDTH 187
ENDPROPERTIES
CHARS 101
STARTCHAR space
ENCODING 32
SWIDTH 823 0
DWIDTH 16 0
BBX 1 1 0 0
BITMAP
00
ENDCHAR
STARTCHAR exclam
ENCODING 33
SWIDTH 529 0
DWIDTH 11 0
BBX 8 16 1 0
BITMAP
7E
8F
BF
BF
FF
7E
7E
7E
3C
00
3C
7E
7E
7E
7E
3C
ENDCHAR
STARTCHAR quotedbl
ENCODING 34
SWIDTH 823 0
DWIDTH 16 0
BBX 14 8 1 7
BITMAP
7078
888C
B8BC
B8BC
F8FC
F8FC
F8FC
7078
ENDCHAR
STARTCHAR numbersign
ENCODING 35
SWIDTH 941 0
DWIDTH 19 0
BBX 16 16 1 0
BITMAP
0E38
317C
377C
377C
FFFF
FFFF
7FFE
3F7C
3F7C
3F7C
7FFE
7F7E
3F7C
3F7C
3F7C
0E38
ENDCHAR
STARTCHAR dollar
ENCODING 36
SWIDTH 823 0
DWIDTH 16 0
BBX 1 1 0 0
BITMAP
00
ENDCHAR
STARTCHAR percent
ENCODING 37
SWIDTH 941 0
DWIDTH 19 0
BBX 16 16 1 0
BITMAP
780E
8C1F
BC7F
BC7F
78FE
03FC
03FC
0FF0
3FE0
3FE0
7F8E
FF9F
FF1F
FF1F
FC1F
780E
ENDCHAR
STARTCHAR ampersand
ENCODING 38
SWIDTH 823 0
DWIDTH 16 0
BBX 1 1 0 0
BITMAP
00
ENDCHAR
STARTCHAR quotesingle
ENCODING 39
SWIDTH 411 0
DWIDTH 8 0
BBX 6 8 1 7
BITMAP
78
8C
BC
BC
FC
FC
FC
78
ENDCHAR
STARTCHAR parenleft
ENCODING 40
SWIDTH 588 0
DWIDTH 12 0
BBX 9 16 1 0
BITMAP
0700
0380
3780
7F00
7E00
FC00
FC00
FC00
FC00
FC00
7E00
7F00
3F80
3F80
0F80
0700
ENDCHAR
STARTCHAR parenright
ENCODING 41
SWIDTH 588 0
DWIDTH 12 0
BBX 9 16 1 0
BITMAP
7000
9C00
BE00
7F00
3F00
1F80
1F80
1F80
1F80
1F80
3F00
7F00
FE00
FE00
FC00
7000
ENDCHAR
STARTCHAR asterisk
ENCODING 42
SWIDTH 529 0
DWIDTH 11 0
BBX 8 8 1 8
BITMAP
76
8F
BF
BF
7E
FF
FF
76
ENDCHAR
STARTCHAR plus
ENCODING 43
SWIDTH 941 0
DWIDTH 19 0
BBX 16 16 1 0
BITMAP
03E0
0470
05F0
05F0
07F0
7FFE
7FFE
FFFF
FFFF
7FFE
07F0
07F0
07F0
07F0
07F0
03E0
ENDCHAR
STARTCHAR comma
ENCODING 44
SWIDTH 411 0
DWIDTH 8 0
BBX 6 8 1 -1
BITMAP
78
8C
BC
BC
FC
FC
FC
78
ENDCHAR
STARTCHAR hyphen
ENCODING 45
SWIDTH 823 0
DWIDTH 16 0
BBX 14 6 1 5
BITMAP
7FF8
7FF8
8FFC
BFFC
BFFC
7FF8
ENDCHAR
STARTCHAR period
ENCODING 46
SWIDTH 411 0
DWIDTH 8 0
BBX 6 6 1 1
BITMAP
78
8C
BC
BC
FC
78
ENDCHAR
STARTCHAR slash
ENCODING 47
SWIDTH 941 0
DWIDTH 19 0
BBX 16 16 1 0
BITMAP
000E
001F
007F
00FF
01FE
03FC
03FC
07F8
0FF0
3FE0
7F80
FF00
FE00
FE00
FC00
7800
ENDCHAR
STARTCHAR zero
ENCODING 48
SWIDTH 941 0
DWIDTH 19 0
BBX 16 16 1 0
BITMAP
3FFC
0FFE
BFFF
FF8F
FF8F
FF8F
FF8F
FF8F
FF8F
FF8F
FF8F
FFFF
FFFF
FFFF
7FFE
3FFC
ENDCHAR
STARTCHAR one
ENCODING 49
SWIDTH 647 0
DWIDTH 13 0
BBX 11 16 1 0
BITMAP
7F80
8FE0
BFE0
BFE0
3FE0
3FE0
3FE0
3FE0
3FE0
3FE0
3FE0
3FE0
3FE0
3FE0
3FE0
0F80
ENDCHAR
STARTCHAR two
ENCODING 50
SWIDTH 941 0
DWIDTH 19 0
BBX 16 16 1 0
BITMAP
7FFC
8FFE
BFFF
BFFF
001F
3FFF
3FFF
FFFC
FFFC
FF00
FFFE
FFFF
FFFF
FFFF
FFFF
7FFE
ENDCHAR
STARTCHAR three
ENCODING 51
SWIDTH 941 0
DWIDTH 19 0
BBX 16 16 1 0
BITMAP
3FFC
0FFE
BFFF
7FFF
000F
3FFF
3FFF
3FFF
3FFF
000F
7FFF
FFFF
FFFF
FFFF
7FFE
3FFC
ENDCHAR
STARTCHAR four
ENCODING 52
SWIDTH 941 0
DWIDTH 19 0
BBX 16 16 1 0
BITMAP
7C78
8EFC
BEFC
BEFC
FEFC
FEFC
FEFC
FEFC
FFFE
FFFF
7FFF
3FFE
00FC
00FC
00FC
0078
ENDCHAR
STARTCHAR five
ENCODING 53
SWIDTH 941 0
DWIDTH 19 0
BBX 16 16 1 0
BITMAP
7FFE
8FFF
BFFF
BFFF
FF00
FFFC
FFFC
FFFE
FFFE
001F
7FFF
FFFF
FFFF
FFFF
FFFE
7FFC
ENDCHAR
STARTCHAR six
ENCODING 54
SWIDTH 941 0
DWIDTH 19 0
BBX 16 16 1 0
BITMAP
3FFC
0FFE
BFFC
FF80
FF80
FF80
FFFC
FFFE
FF8F
FF8F
FF8F
FFFF
FFFF
FFFF
7FFE
3FFC
ENDCHAR
STARTCHAR seven
ENCODING 55
SWIDTH 941 0
DWIDTH 19 0
BBX 16 16 1 0
BITMAP
7FFE
8FFF
BFFF
BFFF
00FF
01FE
01FE
03FC
03F8
07F0
07F0
07F0
07F0
07F0
07F0
03E0
ENDCHAR
STARTCHAR eight
ENCODING 56
SWIDTH 941 0
DWIDTH 19 0
BBX 16 16 1 0
BITMAP
3FFC
0FFE
BFFF
FF8F
FF8F
FF8F
FFFF
7FFE
FF8F
FF8F
FF8F
FFFF
FFFF
FFFF
7FFE
3FFC
ENDCHAR
STARTCHAR nine
ENCODING 57
SWIDTH 941 0
DWIDTH 19 0
BBX 16 16 1 0
BITMAP
3FFC
0FFE
BFFF
FF8F
FF8F
FF8F
FFFF
7FFF
3FFE
007E
01FC
01FC
07F0
07F0
0FE0
0780
ENDCHAR
STARTCHAR colon
ENCODING 58
SWIDTH 411 0
DWIDTH 8 0
BBX 6 14 1 1
BITMAP
78
8C
BC
BC
78
78
00
00
00
FC
FC
FC
FC
78
ENDCHAR
STARTCHAR semicolon
ENCODING 59
SWIDTH 411 0
DWIDTH 8 0
BBX 6 16 1 -1
BITMAP
78
8C
BC
BC
78
78
00
00
00
FC
FC
FC
FC
FC
FC
78
ENDCHAR
STARTCHAR less
ENCODING 60
SWIDTH 647 0
DWIDTH 13 0
BBX 11 16 1 0
BITMAP
0380
00E0
0BE0
0BE0
3F80
FF00
FF00
FC00
FC00
FF00
7F00
3F80
0FE0
0FE0
07E0
0380
ENDCHAR
STARTCHAR equal
ENCODING 61
SWIDTH 823 0
DWIDTH 16 0
BBX 14 14 1 1
BITMAP
7FF8
8FFC
BFFC
BFFC
7FF8
0000
0000
0000
7FF8
FFFC
FFFC
FFFC
FFFC
7FF8
ENDCHAR
STARTCHAR greater
ENCODING 62
SWIDTH 647 0
DWIDTH 13 0
BBX 11 16 1 0
BITMAP
7800
8C00
BE00
BE00
3F80
0FE0
07E0
07E0
07E0
0FE0
3F80
7F00
7E00
FE00
FC00
7800
ENDCHAR
STARTCHAR question
ENCODING 63
SWIDTH 941 0
DWIDTH 19 0
BBX 16 16 1 0
BITMAP
7FFC
8FFE
BFFF
BFFF
001F
03FF
03FF
03FC
0000
0380
0380
07E0
07E0
07E0
07E0
0380
ENDCHAR
STARTCHAR at
ENCODING 64
SWIDTH 823 0
DWIDTH 16 0
BBX 1 1 0 0
BITMAP
00
ENDCHAR
STARTCHAR A
ENCODING 65
SWIDTH 941 0
DWIDTH 19 0
BBX 16 16 1 0
BITMAP
3FF8
0FFC
BFFE
FF8F
FF8F
FF8F
FFFF
FFFF
FF8F
FF8F
FF8F
FF8F
FF8F
FF8F
FF8F
7E06
ENDCHAR
STARTCHAR B
ENCODING 66
SWIDTH 941 0
DWIDTH 19 0
BBX 16 16 1 0
BITMAP
BFFE
BFFF
BFFF
FF8F
FF8F
FF8F
FFFF
FFFE
FF8F
FF8F
FF8F
FFFF
FFFF
FFFF
FFFE
7FFC
ENDCHAR
STARTCHAR C
ENCODING 67
SWIDTH 941 0
DWIDTH 19 0
BBX 16 16 1 0
BITMAP
3FFE
0FFF
BFFE
FF00
FF00
FF00
FF00
FF00
FF00
FF00
FF00
FFFE
FFFF
FFFF
7FFF
3FFE
ENDCHAR
STARTCHAR D
ENCODING 68
SWIDTH 941 0
DWIDTH 19 0
BBX 16 16 1 0
BITMAP
7FF8
8FFC
BFFE
BFFE
FF8F
FF8F
FF8F
FF8F
FF8F
FF8F
FF8F
FFFF
FFFF
FFFF
FFFE
7FFC
ENDCHAR
STARTCHAR E
ENCODING 69
SWIDTH 941 0
DWIDTH 19 0
BBX 16 16 1 0
BITMAP
BFFF
BFFF
BFFE
FF00
FF00
FF00
FFFF
FFFE
FF00
FF00
FF00
FFFE
FFFF
FFFF
FFFF
7FFE
ENDCHAR
STARTCHAR F
ENCODING 70
SWIDTH 941 0
DWIDTH 19 0
BBX 16 16 1 0
BITMAP
BFFF
BFFF
BFFE
FF00
FF00
FF00
FFFF
FFFF
FFFE
FF00
FF00
FF00
FF00
FF00
FF00
7E00
ENDCHAR
STARTCHAR G
ENCODING 71
SWIDTH 941 0
DWIDTH 19 0
BBX 16 16 1 0
BITMAP
3FFE
0FFF
BFFE
FF80
FF80
FF80
FFBF
FFBF
FF8F
FF8F
FF8F
FFFF
FFFF
FFFF
7FFE
3FFC
ENDCHAR
STARTCHAR H
ENCODING 72
SWIDTH 941 0
DWIDTH 19 0
BBX 16 16 1 0
BITMAP
7E0E
8F1F
BF1F
BF1F
FF1F
FFFF
FFFF
FFFF
FFFF
FF1F
FF1F
FF1F
FF1F
FF1F
FF1F
7E0E
ENDCHAR
STARTCHAR I
ENCODING 73
SWIDTH 529 0
DWIDTH 11 0
BBX 8 16 1 0
BITMAP
7E
8F
BF
BF
FF
FF
FF
FF
FF
FF
FF
FF
FF
FF
FF
7E
ENDCHAR
STARTCHAR J
ENCODING 74
SWIDTH 941 0
DWIDTH 19 0
BBX 16 16 1 0
BITMAP
003E
00C7
00DF
00DF
00FF
00FF
00FF
78FF
F8FF
F8FF
F8FF
FFFF
FFFF
FFFF
7FFE
3FFC
ENDCHAR
STARTCHAR K
ENCODING 75
SWIDTH 941 0
DWIDTH 19 0
BBX 16 16 1 0
BITMAP
7E06
8F8F
BF8F
BF8F
FFBE
FFFE
FFFC
FFF8
FFFC
FFFE
FFFF
FFBF
FF8F
FF8F
FF8F
7E06
ENDCHAR
STARTCHAR L
ENCODING 76
SWIDTH 882 0
DWIDTH 18 0
BBX 15 16 1 0
BITMAP
7E00
8F00
BF00
BF00
FF00
FF00
FF00
FF00
FF00
FF00
FF00
FFFC
FFFE
FFFE
FFFE
7FFC
ENDCHAR
STARTCHAR M
ENCODING 77
SWIDTH 1000 0
DWIDTH 20 0
BBX 18 16 1 0
BITMAP
7E0700
8F0FC0
BF0FC0
BF0FC0
FF0FC0
FF9FC0
FF9FC0
FFFFC0
FFFFC0
FFFFC0
FFFFC0
FF6FC0
FF0FC0
FF0FC0
FF0FC0
7E0700
ENDCHAR
STARTCHAR N
ENCODING 78
SWIDTH 941 0
DWIDTH 19 0
BBX 16 16 1 0
BITMAP
7E1E
8F3F
BF3F
BF3F
FF3F
FFBF
FFBF
FFFF
FFFF
FFFF
FF7F
FF3F
FF3F
FF3F
FF3F
7E1E
ENDCHAR
STARTCHAR O
ENCODING 79
SWIDTH 941 0
DWIDTH 19 0
BBX 16 16 1 0
BITMAP
3FFC
0FFE
BFFF
FF8F
FF8F
FF8F
FF8F
FF8F
FF8F
FF8F
FF8F
FFFF
FFFF
FFFF
7FFE
3FFC
ENDCHAR
STARTCHAR P
ENCODING 80
SWIDTH 941 0
DWIDTH 19 0
BBX 16 16 1 0
BITMAP
7FFC
8FFE
BFFF
BFFF
FF1F
FF1F
FF1F
FF1F
FF1F
FFFE
FFFC
FF00
FF00
FF00
FF00
7E00
ENDCHAR
STARTCHAR Q
ENCODING 81
SWIDTH 941 0
DWIDTH 19 0
BBX 16 18 1 -2
BITMAP
3FFC
0FFE
BFFF
FF8F
FF8F
FF8F
FF8F
FF8F
FF8F
FF8F
FF8F
FFFF
FFFF
FFFF
7FFE
3FFC
007C
007C
ENDCHAR
STARTCHAR R
ENCODING 82
SWIDTH 941 0
DWIDTH 19 0
BBX 16 16 1 0
BITMAP
BFFE
BFFF
BFFF
FF8F
FF8F
FF8F
FFFF
FFFE
FFFC
FFFE
FFFF
FFBF
FF8F
FF8F
FF8F
7E06
ENDCHAR
STARTCHAR S
ENCODING 83
SWIDTH 941 0
DWIDTH 19 0
BBX 16 16 1 0
BITMAP
3FFE
0FFF
BFFF
FFFE
FF00
FFFE
FFFF
FFFF
7FFF
001F
7FFF
FFFF
FFFF
FFFF
FFFE
7FFC
ENDCHAR
STARTCHAR T
ENCODING 84
SWIDTH 941 0
DWIDTH 19 0
BBX 16 16 1 0
BITMAP
7FFE
8FFF
BFFF
BFFF
07F0
07F0
07F0
07F0
07F0
07F0
07F0
07F0
07F0
07F0
07F0
03E0
ENDCHAR
STARTCHAR U
ENCODING 85
SWIDTH 941 0
DWIDTH 19 0
BBX 16 16 1 0
BITMAP
7E0E
8F1F
BF1F
BF1F
FF1F
FF1F
FF1F
FF1F
FF1F
FF1F
FF1F
FFFF
FFFF
FFFF
7FFE
3FFC
ENDCHAR
STARTCHAR V
ENCODING 86
SWIDTH 941 0
DWIDTH 19 0
BBX 16 16 1 0
BITMAP
7E0E
8F1F
BF1F
BF1F
FF1F
FF1F
FF1F
FF1F
FF7F
FFFE
FFFC
FFF8
FFF0
FFF0
7FE0
3F80
ENDCHAR
STARTCHAR W
ENCODING 87
SWIDTH 1000 0
DWIDTH 20 0
BBX 18 16 1 0
BITMAP
7F0700
8F8FC0
BF8FC0
BF8FC0
FF8FC0
FF8FC0
FF8FC0
FFAFC0
FFFFC0
FFFFC0
FFFFC0
FFFFC0
FFDFC0
FFDFC0
FF8FC0
7F0700
ENDCHAR
STARTCHAR X
ENCODING 88
SWIDTH 941 0
DWIDTH 19 0
BBX 16 16 1 0
BITMAP
780E
8C1F
BE3F
BE3F
FFFF
3FFC
3FFC
0FF8
0FF8
0FF8
7FFE
7FFE
FE3F
FE3F
FC1F
780E
ENDCHAR
STARTCHAR Y
ENCODING 89
SWIDTH 941 0
DWIDTH 19 0
BBX 16 16 1 0
BITMAP
7C3E
8E7F
BFFF
FFFF
7FFE
7FFE
3FFC
0FF8
07F0
07F0
07F0
07F0
07F0
07F0
07F0
03C0
ENDCHAR
STARTCHAR Z
ENCODING 90
SWIDTH 941 0
DWIDTH 19 0
BBX 16 16 1 0
BITMAP
7FFE
8FFF
BFFF
BFFF
01FE
03FC
03FC
0FF0
0FF0
3FE0
7FFE
FFFF
FFFF
FFFF
FFFF
7FFE
ENDCHAR
STARTCHAR bracketleft
ENCODING 91
SWIDTH 529 0
DWIDTH 11 0
BBX 8 16 1 0
BITMAP
3E
1F
BF
BF
FE
FC
FC
FC
FC
FC
FC
FE
FF
FF
7F
3E
ENDCHAR
STARTCHAR backslash
ENCODING 92
SWIDTH 941 0
DWIDTH 19 0
BBX 16 16 1 0
BITMAP
7800
8C00
BE00
BE00
7F80
3FE0
3FE0
0FF0
07F8
03FC
01FE
00FF
007F
007F
001F
000E
ENDCHAR
STARTCHAR bracketright
ENCODING 93
SWIDTH 529 0
DWIDTH 11 0
BBX 8 16 1 0
BITMAP
7C
8E
BF
BF
3F
3F
3F
3F
3F
3F
3F
7F
FF
FF
FE
7C
ENDCHAR
STARTCHAR asciicircum
ENCODING 94
SWIDTH 588 0
DWIDTH 12 0
BBX 9 6 1 9
BITMAP
7F00
8F80
BF80
BF80
7F00
7F00
ENDCHAR
STARTCHAR underscore
ENCODING 95
SWIDTH 941 0
DWIDTH 19 0
BBX 16 6 1 0
BITMAP
7FFE
8FFF
BFFF
BFFF
FFFF
7FFE
ENDCHAR
STARTCHAR grave
ENCODING 96
SWIDTH 588 0
DWIDTH 12 0
BBX 9 6 1 9
BITMAP
7F00
8F80
BF80
BF80
7F00
7F00
ENDCHAR
STARTCHAR a
ENCODING 97
SWIDTH 823 0
DWIDTH 16 0
BBX 14 14 1 0
BITMAP
3FF0
0FF8
BFFC
FF1C
FFFC
FFFC
FFFC
FFFC
FF1C
FF1C
FF1C
FF1C
FF1C
7C08
ENDCHAR
STARTCHAR b
ENCODING 98
SWIDTH 823 0
DWIDTH 16 0
BBX 14 14 1 0
BITMAP
7FF0
8FF8
BFFC
BFFC
FF1C
FFFC
FFF8
FFFC
FF1C
FFFC
FFFC
FFFC
FFF8
7FF0
ENDCHAR
STARTCHAR c
ENCODING 99
SWIDTH 823 0
DWIDTH 16 0
BBX 14 14 1 0
BITMAP
3FF8
0FFC
BFF8
FE00
FE00
FE00
FE00
FE00
FE00
FFF8
FFFC
FFFC
7FFC
3FF8
ENDCHAR
STARTCHAR d
ENCODING 100
SWIDTH 823 0
DWIDTH 16 0
BBX 14 14 1 0
BITMAP
7FE0
8FF0
BFF8
BFF8
FF1C
FF1C
FF1C
FF1C
FF1C
FF1C
FFFC
FFFC
FFF8
7FF0
ENDCHAR
STARTCHAR e
ENCODING 101
SWIDTH 823 0
DWIDTH 16 0
BBX 14 14 1 0
BITMAP
7FF8
8FFC
BFF8
FE00
FFF8
FFFC
FFFC
FFF8
FE00
FFF8
FFFC
FFFC
FFFC
7FF8
ENDCHAR
STARTCHAR f
ENCODING 102
SWIDTH 823 0
DWIDTH 16 0
BBX 14 14 1 0
BITMAP
7FF8
8FFC
BFF8
FE00
FFF8
FFFC
FFFC
FFF8
FE00
FE00
FE00
FE00
FE00
7C00
ENDCHAR
STARTCHAR g
ENCODING 103
SWIDTH 823 0
DWIDTH 16 0
BBX 14 14 1 0
BITMAP
3FF8
0FFC
BFF8
FF00
FF18
FF18
FF3C
FF1C
FF1C
FFFC
FFFC
FFFC
7FF8
3FF0
ENDCHAR
STARTCHAR h
ENCODING 104
SWIDTH 823 0
DWIDTH 16 0
BBX 14 14 1 0
BITMAP
7838
8C7C
BC7C
BC7C
FC7C
FFFC
FFFC
FFFC
FC7C
FC7C
FC7C
FC7C
FC7C
7838
ENDCHAR
STARTCHAR i
ENCODING 105
SWIDTH 470 0
DWIDTH 9 0
BBX 7 14 1 0
BITMAP
7C
8E
BE
BE
FE
FE
FE
FE
FE
FE
FE
FE
FE
7C
ENDCHAR
STARTCHAR j
ENCODING 106
SWIDTH 823 0
DWIDTH 16 0
BBX 14 14 1 0
BITMAP
00F8
011C
017C
017C
01FC
01FC
71FC
F1FC
F1FC
FFFC
FFFC
FFFC
7FF8
3FF0
ENDCHAR
STARTCHAR k
ENCODING 107
SWIDTH 823 0
DWIDTH 16 0
BBX 14 14 1 0
BITMAP
7C18
8E3C
BEFC
BEFC
FFF8
FFF0
FFE0
FFF0
FFF8
FFFC
FEFC
FEFC
FE3C
7C18
ENDCHAR
STARTCHAR l
ENCODING 108
SWIDTH 764 0
DWIDTH 15 0
BBX 13 14 1 0
BITMAP
7C00
8E00
BE00
BE00
FE00
FE00
FE00
FE00
FE00
FFF0
FFF8
FFF8
FFF8
7FF0
ENDCHAR
STARTCHAR m
ENCODING 109
SWIDTH 882 0
DWIDTH 18 0
BBX 15 14 1 0
BITMAP
7C0C
8E1E
BE1E
BE1E
FF3E
FFFE
FFFE
FFFE
FEDE
FE1E
FE1E
FE1E
FE1E
7C0C
ENDCHAR
STARTCHAR n
ENCODING 110
SWIDTH 823 0
DWIDTH 16 0
BBX 14 14 1 0
BITMAP
7C38
8E7C
BE7C
BE7C
FF7C
FFFC
FFFC
FEFC
FE7C
FE7C
FE7C
FE7C
FE7C
7C38
ENDCHAR
STARTCHAR o
ENCODING 111
SWIDTH 823 0
DWIDTH 16 0
BBX 14 14 1 0
BITMAP
3FF0
0FF8
BFFC
FF1C
FF1C
FF1C
FF1C
FF1C
FF1C
FFFC
FFFC
FFFC
7FF8
3FF0
ENDCHAR
STARTCHAR p
ENCODING 112
SWIDTH 823 0
DWIDTH 16 0
BBX 14 14 1 0
BITMAP
7FF0
8FF8
BFFC
FC7C
FC7C
FC7C
FFF8
FFF8
FFF0
FC00
FC00
FC00
FC00
7C00
ENDCHAR
STARTCHAR q
ENCODING 113
SWIDTH 823 0
DWIDTH 16 0
BBX 14 16 1 -2
BITMAP
3FF0
0FF8
BFFC
FF1C
FF1C
FF1C
FF1C
FF1C
FF1C
FFFC
FFFC
FFFC
7FF8
3FF0
00F0
00F0
ENDCHAR
STARTCHAR r
ENCODING 114
SWIDTH 823 0
DWIDTH 16 0
BBX 14 14 1 0
BITMAP
7FF0
8FF8
BFFC
FE3C
FFFC
FFFC
FFF8
FFF0
FFF8
FEFC
FE3C
FE3C
FE3C
7C08
ENDCHAR
STARTCHAR s
ENCODING 115
SWIDTH 823 0
DWIDTH 16 0
BBX 14 14 1 0
BITMAP
3FF8
0FFC
BFF8
FE00
FFF8
FFF8
7FFC
007C
7FFC
FFFC
FFFC
FFFC
FFF8
7FF0
ENDCHAR
STARTCHAR t
ENCODING 116
SWIDTH 823 0
DWIDTH 16 0
BBX 14 14 1 0
BITMAP
7FF8
8FFC
BFFC
BFFC
7FF8
0FE0
0FE0
0FE0
0FE0
0FE0
0FE0
0FE0
0FE0
0780
ENDCHAR
STARTCHAR u
ENCODING 117
SWIDTH 823 0
DWIDTH 16 0
BBX 14 14 1 0
BITMAP
7838
8C7C
BC7C
BC7C
FC7C
FC7C
FC7C
FC7C
FC7C
FFFC
FFFC
FFFC
7FF8
3FF0
ENDCHAR
STARTCHAR v
ENCODING 118
SWIDTH 823 0
DWIDTH 16 0
BBX 14 14 1 0
BITMAP
7C18
8E3C
BE3C
BE3C
FE3C
FE3C
FE3C
FEFC
FFF8
FFF0
FFE0
FFE0
7FC0
3F00
ENDCHAR
STARTCHAR w
ENCODING 119
SWIDTH 882 0
DWIDTH 18 0
BBX 15 14 1 0
BITMAP
7C1C
8E3E
BE3E
BE3E
FE3E
FE3E
FEBE
FFFE
FFFE
FFFE
FF7E
FF7E
FE3E
7C1C
ENDCHAR
STARTCHAR x
ENCODING 120
SWIDTH 823 0
DWIDTH 16 0
BBX 14 14 1 0
BITMAP
7078
88FC
BDFC
BDFC
FFF8
7FF0
3FE0
0FF0
3FF8
7FFC
FEFC
FEFC
FC7C
7838
ENDCHAR
STARTCHAR y
ENCODING 121
SWIDTH 823 0
DWIDTH 16 0
BBX 14 14 1 0
BITMAP
7838
8C7C
BFFC
BFFC
7FF8
3FF0
0FE0
07E0
07E0
07E0
07E0
07E0
07E0
0380
ENDCHAR
STARTCHAR z
ENCODING 122
SWIDTH 823 0
DWIDTH 16 0
BBX 14 14 1 0
BITMAP
7FF8
8FFC
BFFC
BFFC
7FF8
03F0
07E0
0F80
3FF8
3FF8
FFFC
FFFC
FFFC
7FF8
ENDCHAR
STARTCHAR braceleft
ENCODING 123
SWIDTH 647 0
DWIDTH 13 0
BBX 11 16 1 0
BITMAP
0780
03E0
37E0
3F80
3F00
7F00
7F00
FF00
FF00
7F00
3F00
3F80
3FE0
3FE0
0FE0
0780
ENDCHAR
STARTCHAR bar
ENCODING 124
SWIDTH 529 0
DWIDTH 11 0
BBX 8 16 1 0
BITMAP
7E
8F
BF
BF
FF
FF
FF
FF
FF
FF
FF
FF
FF
FF
FF
7E
ENDCHAR
STARTCHAR braceright
ENCODING 125
SWIDTH 647 0
DWIDTH 13 0
BBX 11 16 1 0
BITMAP
7C00
8E00
BF00
BF00
3F00
3F80
3F80
3FE0
3FE0
3F80
3F00
7F00
FF00
FF00
FE00
7C00
ENDCHAR
STARTCHAR asciitilde
ENCODING 126
SWIDTH 588 0
DWIDTH 12 0
BBX 9 6 1 9
BITMAP
7F00
8F80
BF80
BF80
7F00
7F00
ENDCHAR
STARTCHAR nonbreakingspace
ENCODING 160
SWIDTH 833 0
DWIDTH 17 0
BBX 1 1 0 0
BITMAP
00
ENDCHAR
STARTCHAR hyphen.dup1
ENCODING 8208
SWIDTH 823 0
DWIDTH 16 0
BBX 14 6 1 5
BITMAP
7FF8
7FF8
8FFC
BFFC
BFFC
7FF8
ENDCHAR
STARTCHAR .notdef
ENCODING -1
SWIDTH 500 0
DWIDTH 10 0
BBX 8 18 1 0
BITMAP
FF
81
81
81
81
81
81
81
81
81
81
81
81
81
81
81
81
FF
ENDCHAR
STARTCHAR .null
ENCODING -1
SWIDTH 0 0
DWIDTH 0 0
BBX 1 1 0 0
BITMAP
00
ENDCHAR
STARTCHAR nonmarkingreturn
ENCODING -1
SWIDTH 823 0
DWIDTH 16 0
BBX 1 1 0 0
BITMAP
00
ENDCHAR
STARTCHAR DEL
ENCODING -1
SWIDTH 823 0
DWIDTH 16 0
BBX 1 1 0 0
BITMAP
00
ENDCHAR
ENDFONT
