STARTFONT 2.1
FONT -FontForge-Daydream-Regular-R-Normal--21-160-96-96-P-203-ISO10646-1
SIZE 16 96 96
FONTBOUNDINGBOX 26 28 0 -10
COMMENT "Generated by fontforge, http://fontforge.sourceforge.net"
COMMENT "(c) 2020 by DoubleGum."
STARTPROPERTIES 40
FOUNDRY "FontForge"
FAMILY_NAME "Daydream"
WEIGHT_NAME "Regular"
SLANT "R"
SETWIDTH_NAME "Normal"
ADD_STYLE_NAME ""
PIXEL_SIZE 21
POINT_SIZE 160
RESOLUTION_X 96
RESOLUTION_Y 96
SPACING "P"
AVERAGE_WIDTH 203
CHARSET_REGISTRY "ISO10646"
CHARSET_ENCODING "1"
FONTNAME_REGISTRY ""
CHARSET_COLLECTIONS "ISO10646-1"
FONT_NAME "DaydreamRegular"
FACE_NAME "Daydream Regular"
COPYRIGHT "(c) 2020 by DoubleGum."
FONT_VERSION "1.0"
FONT_ASCENT 17
FONT_DESCENT 4
UNDERLINE_POSITION 0
UNDERLINE_THICKNESS 0
X_HEIGHT 15
CAP_HEIGHT 15
DEFAULT_CHAR 0
RAW_ASCENT 799
RAW_DESCENT 200
NORM_SPACE 6
RELATIVE_WEIGHT 40
RELATIVE_SETWIDTH 50
SUPERSCRIPT_X 0
SUPERSCRIPT_Y 9
SUPERSCRIPT_SIZE 14
SUBSCRIPT_X 0
SUBSCRIPT_Y 2
SUBSCRIPT_SIZE 14
AVG_LOWERCASE_WIDTH 227
AVG_UPPERCASE_WIDTH 227
ENDPROPERTIES
CHARS 73
STARTCHAR .notdef
ENCODING 0
SWIDTH 406 0
DWIDTH 9 0
BBX 9 14 0 0
BITMAP
FF80
8080
8080
8080
8080
8080
8080
8080
8080
8080
8080
8080
8080
FF80
ENDCHAR
STARTCHAR space
ENCODING 32
SWIDTH 281 0
DWIDTH 6 0
BBX 1 1 0 0
BITMAP
00
ENDCHAR
STARTCHAR exclam
ENCODING 33
SWIDTH 468 0
DWIDTH 10 0
BBX 8 28 0 -10
BITMAP
3C
3C
FF
FF
FF
FF
FF
FF
FF
FF
FF
FF
3C
3C
3C
3C
3C
3C
00
00
3C
3C
FF
FF
FF
FF
3C
3C
ENDCHAR
STARTCHAR quotedbl
ENCODING 34
SWIDTH 562 0
DWIDTH 12 0
BBX 10 8 0 10
BITMAP
F3C0
F3C0
F3C0
F3C0
F3C0
F3C0
C300
C300
ENDCHAR
STARTCHAR quotesingle
ENCODING 39
SWIDTH 281 0
DWIDTH 6 0
BBX 4 8 0 10
BITMAP
F0
F0
F0
F0
F0
F0
C0
C0
ENDCHAR
STARTCHAR comma
ENCODING 44
SWIDTH 468 0
DWIDTH 10 0
BBX 8 10 0 -10
BITMAP
3C
3C
FF
FF
FF
FF
3F
3F
FC
FC
ENDCHAR
STARTCHAR period
ENCODING 46
SWIDTH 468 0
DWIDTH 10 0
BBX 8 8 0 -8
BITMAP
3C
3C
FF
FF
FF
FF
3C
3C
ENDCHAR
STARTCHAR slash
ENCODING 47
SWIDTH 656 0
DWIDTH 14 0
BBX 12 24 0 -8
BITMAP
03C0
03C0
03F0
03F0
0FF0
0FF0
0FC0
0FC0
0FC0
0FC0
0FC0
0FC0
3F00
3F00
3F00
3F00
3F00
3F00
FF00
FF00
FC00
FC00
3C00
3C00
ENDCHAR
STARTCHAR zero
ENCODING 48
SWIDTH 1031 0
DWIDTH 22 0
BBX 20 24 0 -8
BITMAP
03FF00
03FF00
0FFFC0
0FFFC0
3FFFC0
3FFFC0
3FCFF0
3FCFF0
FF03F0
FF03F0
FF03F0
FF03F0
FF03F0
FF03F0
FFCFF0
FFCFF0
FFFFF0
FFFFF0
3FFFC0
3FFFC0
3FFFC0
3FFFC0
0FFF00
0FFF00
ENDCHAR
STARTCHAR one
ENCODING 49
SWIDTH 656 0
DWIDTH 14 0
BBX 12 24 0 -8
BITMAP
3FC0
3FC0
FFF0
FFF0
FFF0
FFF0
3FF0
3FF0
0FF0
0FF0
0FF0
0FF0
0FF0
0FF0
0FF0
0FF0
0FF0
0FF0
0FF0
0FF0
0FF0
0FF0
03C0
03C0
ENDCHAR
STARTCHAR two
ENCODING 50
SWIDTH 937 0
DWIDTH 20 0
BBX 18 24 0 -8
BITMAP
3FFC00
3FFC00
FFFF00
FFFF00
FFFF00
FFFF00
3CFF00
3CFF00
00FF00
00FF00
03FF00
03FF00
0FFC00
0FFC00
3FF000
3FF000
3FCF00
3FCF00
FFFFC0
FFFFC0
FFFFC0
FFFFC0
FFFF00
FFFF00
ENDCHAR
STARTCHAR three
ENCODING 51
SWIDTH 1031 0
DWIDTH 22 0
BBX 20 24 0 -8
BITMAP
0FFF00
0FFF00
3FFFC0
3FFFC0
3FFFC0
3FFFC0
0F3FC0
0F3FC0
003FC0
003FC0
00FF00
00FF00
003FC0
003FC0
0F3FF0
0F3FF0
3FFFF0
3FFFF0
FFFFF0
FFFFF0
3FFFC0
3FFFC0
03FF00
03FF00
ENDCHAR
STARTCHAR four
ENCODING 52
SWIDTH 1031 0
DWIDTH 22 0
BBX 20 24 0 -8
BITMAP
0F03C0
0F03C0
3FCFF0
3FCFF0
3FCFF0
3FCFF0
3F0FF0
3F0FF0
FF0FF0
FF0FF0
FFFFF0
FFFFF0
FFFFC0
FFFFC0
3FFFC0
3FFFC0
03FFC0
03FFC0
003FC0
003FC0
003FC0
003FC0
000F00
000F00
ENDCHAR
STARTCHAR five
ENCODING 53
SWIDTH 937 0
DWIDTH 20 0
BBX 18 24 0 -8
BITMAP
0FFF00
0FFF00
3FFF00
3FFF00
3FFC00
3FFC00
3F0000
3F0000
3FFC00
3FFC00
3FFF00
3FFF00
00FFC0
00FFC0
0F3FC0
0F3FC0
3FFFC0
3FFFC0
FFFFC0
FFFFC0
FFFF00
FFFF00
3FFC00
3FFC00
ENDCHAR
STARTCHAR six
ENCODING 54
SWIDTH 937 0
DWIDTH 20 0
BBX 18 24 0 -8
BITMAP
03F000
03F000
0FFC00
0FFC00
0FFC00
0FFC00
3FF000
3FF000
3FFC00
3FFC00
FFFF00
FFFF00
FFFFC0
FFFFC0
FC3FC0
FC3FC0
FC3FC0
FC3FC0
FFFFC0
FFFFC0
3FFF00
3FFF00
0FFC00
0FFC00
ENDCHAR
STARTCHAR seven
ENCODING 55
SWIDTH 937 0
DWIDTH 20 0
BBX 18 24 0 -8
BITMAP
3FFF00
3FFF00
FFFFC0
FFFFC0
FFFFC0
FFFFC0
3F3FC0
3F3FC0
003FC0
003FC0
00FF00
00FF00
00FF00
00FF00
03FF00
03FF00
03FC00
03FC00
0FFC00
0FFC00
0FFC00
0FFC00
03F000
03F000
ENDCHAR
STARTCHAR eight
ENCODING 56
SWIDTH 1031 0
DWIDTH 22 0
BBX 20 24 0 -8
BITMAP
0FFF00
0FFF00
3FFFC0
3FFFC0
3FFFC0
3FFFC0
3F0FC0
3F0FC0
3FFFC0
3FFFC0
0FFF00
0FFF00
3FFFC0
3FFFC0
FF0FF0
FF0FF0
FFFFF0
FFFFF0
FFFFF0
FFFFF0
FFFFF0
FFFFF0
3FFFC0
3FFFC0
ENDCHAR
STARTCHAR nine
ENCODING 57
SWIDTH 937 0
DWIDTH 20 0
BBX 18 24 0 -8
BITMAP
0FFC00
0FFC00
3FFF00
3FFF00
FFFFC0
FFFFC0
FF0FC0
FF0FC0
FF0FC0
FF0FC0
FFFFC0
FFFFC0
3FFFC0
3FFFC0
0FFFC0
0FFFC0
03FF00
03FF00
0FFF00
0FFF00
0FFC00
0FFC00
03F000
03F000
ENDCHAR
STARTCHAR question
ENCODING 63
SWIDTH 937 0
DWIDTH 20 0
BBX 18 28 0 -10
BITMAP
3FFF00
3FFF00
FFFFC0
FFFFC0
FFFFC0
FFFFC0
FF3FC0
FF3FC0
3C3FC0
3C3FC0
00FFC0
00FFC0
00FF00
00FF00
03FC00
03FC00
03C000
03C000
000000
000000
03C000
03C000
0FF000
0FF000
0FF000
0FF000
03C000
03C000
ENDCHAR
STARTCHAR A
ENCODING 65
SWIDTH 1125 0
DWIDTH 24 0
BBX 22 24 0 -8
BITMAP
003FC0
003FC0
00FFF0
00FFF0
03FFF0
03FFF0
0FFFFC
0FFFFC
0FF0FC
0FF0FC
3FC0FC
3FC0FC
3FFCFC
3FFCFC
FFFFFC
FFFFFC
FFFFFC
FFFFFC
FF0FFC
FF0FFC
3C03FC
3C03FC
0000F0
0000F0
ENDCHAR
STARTCHAR B
ENCODING 66
SWIDTH 1125 0
DWIDTH 24 0
BBX 22 24 0 -8
BITMAP
03FC00
03FC00
0FFFC0
0FFFC0
0FFFF0
0FFFF0
3FCFF0
3FCFF0
3F0FF0
3F0FF0
3FFFC0
3FFFC0
FFFFF0
FFFFF0
FF0FFC
FF0FFC
FF0FFC
FF0FFC
FFFFFC
FFFFFC
FFFFFC
FFFFFC
3FFFC0
3FFFC0
ENDCHAR
STARTCHAR C
ENCODING 67
SWIDTH 1031 0
DWIDTH 22 0
BBX 20 24 0 -8
BITMAP
00FF00
00FF00
0FFFC0
0FFFC0
3FFFC0
3FFFC0
3FFF00
3FFF00
FFC000
FFC000
FF0000
FF0000
FF0000
FF0000
FFC3C0
FFC3C0
3FFFF0
3FFFF0
3FFFF0
3FFFF0
0FFFF0
0FFFF0
00FF00
00FF00
ENDCHAR
STARTCHAR D
ENCODING 68
SWIDTH 1125 0
DWIDTH 24 0
BBX 22 24 0 -8
BITMAP
3FFC00
3FFC00
FFFFC0
FFFFC0
FFFFF0
FFFFF0
FFFFF0
FFFFF0
FF0FFC
FF0FFC
FF03FC
FF03FC
FF03FC
FF03FC
FFCFFC
FFCFFC
3FFFFC
3FFFFC
3FFFFC
3FFFFC
3FFFF0
3FFFF0
3FFFC0
3FFFC0
ENDCHAR
STARTCHAR E
ENCODING 69
SWIDTH 1031 0
DWIDTH 22 0
BBX 20 24 0 -8
BITMAP
03FFC0
03FFC0
0FFFF0
0FFFF0
0FFFF0
0FFFF0
3FFFC0
3FFFC0
3FC000
3FC000
3FFF00
3FFF00
FFFF00
FFFF00
FFFC00
FFFC00
FF0000
FF0000
FFFFC0
FFFFC0
FFFFC0
FFFFC0
3FFF00
3FFF00
ENDCHAR
STARTCHAR F
ENCODING 70
SWIDTH 937 0
DWIDTH 20 0
BBX 18 24 0 -8
BITMAP
0FFF00
0FFF00
3FFFC0
3FFFC0
3FFFC0
3FFFC0
3FFF00
3FFF00
FFC000
FFC000
FFFF00
FFFF00
FFFF00
FFFF00
FFFC00
FFFC00
FF0000
FF0000
FF0000
FF0000
FF0000
FF0000
3C0000
3C0000
ENDCHAR
STARTCHAR G
ENCODING 71
SWIDTH 1125 0
DWIDTH 24 0
BBX 22 24 0 -8
BITMAP
00FFC0
00FFC0
0FFFF0
0FFFF0
3FFFF0
3FFFF0
3FFFC0
3FFFC0
FFC000
FFC000
FF0FF0
FF0FF0
FF3FFC
FF3FFC
FF3FFC
FF3FFC
FFC3FC
FFC3FC
3FFFF0
3FFFF0
3FFFF0
3FFFF0
03FF00
03FF00
ENDCHAR
STARTCHAR H
ENCODING 72
SWIDTH 1125 0
DWIDTH 24 0
BBX 22 24 0 -8
BITMAP
3C03C0
3C03C0
FF0FC0
FF0FC0
FF0FF0
FF0FF0
FF0FF0
FF0FF0
FFFFF0
FFFFF0
FFFFF0
FFFFF0
FFFFFC
FFFFFC
FFFFFC
FFFFFC
FF03FC
FF03FC
FF03FC
FF03FC
FF03FC
FF03FC
3C00F0
3C00F0
ENDCHAR
STARTCHAR I
ENCODING 73
SWIDTH 562 0
DWIDTH 12 0
BBX 10 24 0 -8
BITMAP
3C00
3C00
FF00
FF00
FF00
FF00
FF00
FF00
FF00
FF00
FF00
FF00
FF00
FF00
FFC0
FFC0
FFC0
FFC0
FFC0
FFC0
FFC0
FFC0
3F00
3F00
ENDCHAR
STARTCHAR J
ENCODING 74
SWIDTH 843 0
DWIDTH 18 0
BBX 16 24 0 -8
BITMAP
03F0
03F0
0FF0
0FF0
0FFC
0FFC
03FC
03FC
03FF
03FF
00FF
00FF
00FF
00FF
3CFF
3CFF
FFFF
FFFF
FFFF
FFFF
FFFC
FFFC
3FF0
3FF0
ENDCHAR
STARTCHAR K
ENCODING 75
SWIDTH 1031 0
DWIDTH 22 0
BBX 20 24 0 -8
BITMAP
3C0FC0
3C0FC0
FF0FF0
FF0FF0
FF3FF0
FF3FF0
FF3FC0
FF3FC0
FFFFC0
FFFFC0
FFFF00
FFFF00
3FFFC0
3FFFC0
3FFFC0
3FFFC0
3FFFF0
3FFFF0
3FCFF0
3FCFF0
3FCFF0
3FCFF0
0F03C0
0F03C0
ENDCHAR
STARTCHAR L
ENCODING 76
SWIDTH 750 0
DWIDTH 16 0
BBX 14 24 0 -8
BITMAP
03C0
03C0
0FF0
0FF0
0FF0
0FF0
3FF0
3FF0
3FC0
3FC0
3FC0
3FC0
FF00
FF00
FF00
FF00
FFF0
FFF0
FFFC
FFFC
FFFC
FFFC
3FF0
3FF0
ENDCHAR
STARTCHAR M
ENCODING 77
SWIDTH 1312 0
DWIDTH 28 0
BBX 26 24 0 -8
BITMAP
0FC0F000
0FC0F000
3FF3FC00
3FF3FC00
3FFFFC00
3FFFFC00
3FFFFF00
3FFFFF00
3FFFFF00
3FFFFF00
FF3FFF00
FF3FFF00
FF0F3F00
FF0F3F00
FF003FC0
FF003FC0
FFC03FC0
FFC03FC0
FFC03FC0
FFC03FC0
FFC03FC0
FFC03FC0
3F000F00
3F000F00
ENDCHAR
STARTCHAR N
ENCODING 78
SWIDTH 1218 0
DWIDTH 26 0
BBX 24 24 0 -8
BITMAP
0FC03C
0FC03C
3FF0FF
3FF0FF
3FF0FF
3FF0FF
3FFCFF
3FFCFF
3FFCFF
3FFCFF
FFFCFF
FFFCFF
FF3FFF
FF3FFF
FF3FFC
FF3FFC
FF3FFC
FF3FFC
FF0FFC
FF0FFC
FF0FFC
FF0FFC
3C03F0
3C03F0
ENDCHAR
STARTCHAR O
ENCODING 79
SWIDTH 1125 0
DWIDTH 24 0
BBX 22 24 0 -8
BITMAP
00FC00
00FC00
0FFFC0
0FFFC0
3FFFF0
3FFFF0
3F0FF0
3F0FF0
FC03FC
FC03FC
FC03FC
FC03FC
FF0FFC
FF0FFC
FFFFFC
FFFFFC
FFFFFC
FFFFFC
3FFFF0
3FFFF0
3FFFF0
3FFFF0
03FF00
03FF00
ENDCHAR
STARTCHAR P
ENCODING 80
SWIDTH 1031 0
DWIDTH 22 0
BBX 20 24 0 -8
BITMAP
3FF000
3FF000
FFFF00
FFFF00
FFFFC0
FFFFC0
FC3FC0
FC3FC0
FC0FF0
FC0FF0
FF0FF0
FF0FF0
FFFFF0
FFFFF0
FFFFC0
FFFFC0
3FFF00
3FFF00
3FC000
3FC000
3FC000
3FC000
0F0000
0F0000
ENDCHAR
STARTCHAR Q
ENCODING 81
SWIDTH 1218 0
DWIDTH 26 0
BBX 24 24 0 -8
BITMAP
003FC0
003FC0
03FFF0
03FFF0
0FFFFC
0FFFFC
3FF0FC
3FF0FC
3FC0FC
3FC0FC
FF0CFC
FF0CFC
FF3FFC
FF3FFC
FF3FF0
FF3FF0
FFFFFC
FFFFFC
FFFFFF
FFFFFF
3FFFFF
3FFFFF
03FC3C
03FC3C
ENDCHAR
STARTCHAR R
ENCODING 82
SWIDTH 1125 0
DWIDTH 24 0
BBX 22 24 0 -8
BITMAP
03FFC0
03FFC0
0FFFF0
0FFFF0
0FFFFC
0FFFFC
3FC3FC
3FC3FC
3F03FC
3F03FC
3F0FFC
3F0FFC
FFFFF0
FFFFF0
FFFFC0
FFFFC0
FFFFF0
FFFFF0
FF3FFC
FF3FFC
FF0FFC
FF0FFC
3C03F0
3C03F0
ENDCHAR
STARTCHAR S
ENCODING 83
SWIDTH 1031 0
DWIDTH 22 0
BBX 20 24 0 -8
BITMAP
03FF00
03FF00
0FFFC0
0FFFC0
3FFFC0
3FFFC0
3FCF00
3FCF00
3FF000
3FF000
0FFF00
0FFF00
03FFC0
03FFC0
3C3FF0
3C3FF0
FFFFF0
FFFFF0
FFFFF0
FFFFF0
FFFFC0
FFFFC0
3FFC00
3FFC00
ENDCHAR
STARTCHAR T
ENCODING 84
SWIDTH 1125 0
DWIDTH 24 0
BBX 22 24 0 -8
BITMAP
03FFF0
03FFF0
3FFFFC
3FFFFC
FFFFFC
FFFFFC
FFFFF0
FFFFF0
FFFF00
FFFF00
3CFF00
3CFF00
00FF00
00FF00
00FF00
00FF00
00FFC0
00FFC0
00FFC0
00FFC0
003FC0
003FC0
003F00
003F00
ENDCHAR
STARTCHAR U
ENCODING 85
SWIDTH 1125 0
DWIDTH 24 0
BBX 22 24 0 -8
BITMAP
3F0000
3F0000
3FC3C0
3FC3C0
FFCFF0
FFCFF0
FFCFF0
FFCFF0
FF0FFC
FF0FFC
FF03FC
FF03FC
FF03FC
FF03FC
FFCFFC
FFCFFC
FFFFFC
FFFFFC
3FFFF0
3FFFF0
3FFFF0
3FFFF0
0FFFC0
0FFFC0
ENDCHAR
STARTCHAR V
ENCODING 86
SWIDTH 1125 0
DWIDTH 24 0
BBX 22 24 0 -8
BITMAP
3F0000
3F0000
FFC0F0
FFC0F0
FFC3FC
FFC3FC
FFC3FC
FFC3FC
FFCFFC
FFCFFC
3FCFFC
3FCFFC
3FCFF0
3FCFF0
3FFFF0
3FFFF0
3FFFC0
3FFFC0
0FFFC0
0FFFC0
0FFF00
0FFF00
03FC00
03FC00
ENDCHAR
STARTCHAR W
ENCODING 87
SWIDTH 1218 0
DWIDTH 26 0
BBX 24 24 0 -8
BITMAP
3C003C
3C003C
FF00FF
FF00FF
FF00FF
FF00FF
FF00FF
FF00FF
FF00FF
FF00FF
FF3CFF
FF3CFF
3FFFFF
3FFFFF
3FFFFC
3FFFFC
3FFFFC
3FFFFC
0FFFFC
0FFFFC
0FFFF0
0FFFF0
03C3C0
03C3C0
ENDCHAR
STARTCHAR X
ENCODING 88
SWIDTH 1218 0
DWIDTH 26 0
BBX 24 24 0 -8
BITMAP
0F00F0
0F00F0
3FC3FC
3FC3FC
3FFFFC
3FFFFC
0FFFF0
0FFFF0
03FFC0
03FFC0
0FFFF0
0FFFF0
3FFFFC
3FFFFC
3FFFFC
3FFFFC
FFC3FF
FFC3FF
FF00FF
FF00FF
FF00FF
FF00FF
3C003C
3C003C
ENDCHAR
STARTCHAR Y
ENCODING 89
SWIDTH 1031 0
DWIDTH 22 0
BBX 20 24 0 -8
BITMAP
0003C0
0003C0
3F0FF0
3F0FF0
FFCFF0
FFCFF0
FFFFF0
FFFFF0
3FFFF0
3FFFF0
0FFFC0
0FFFC0
03FFC0
03FFC0
00FF00
00FF00
03FF00
03FF00
03FC00
03FC00
03FC00
03FC00
00F000
00F000
ENDCHAR
STARTCHAR Z
ENCODING 90
SWIDTH 1031 0
DWIDTH 22 0
BBX 20 24 0 -8
BITMAP
0FFC00
0FFC00
3FFFC0
3FFFC0
3FFFC0
3FFFC0
0FFFC0
0FFFC0
00FF00
00FF00
03FF00
03FF00
0FFC00
0FFC00
3FF000
3FF000
3FFFC0
3FFFC0
FFFFF0
FFFFF0
FFFFF0
FFFFF0
3FFFC0
3FFFC0
ENDCHAR
STARTCHAR a
ENCODING 97
SWIDTH 1125 0
DWIDTH 24 0
BBX 22 24 0 -8
BITMAP
003FC0
003FC0
00FFF0
00FFF0
03FFF0
03FFF0
0FFFFC
0FFFFC
0FF0FC
0FF0FC
3FC0FC
3FC0FC
3FFCFC
3FFCFC
FFFFFC
FFFFFC
FFFFFC
FFFFFC
FF0FFC
FF0FFC
3C03FC
3C03FC
0000F0
0000F0
ENDCHAR
STARTCHAR b
ENCODING 98
SWIDTH 1125 0
DWIDTH 24 0
BBX 22 24 0 -8
BITMAP
03FC00
03FC00
0FFFC0
0FFFC0
0FFFF0
0FFFF0
3FCFF0
3FCFF0
3F0FF0
3F0FF0
3FFFC0
3FFFC0
FFFFF0
FFFFF0
FF0FFC
FF0FFC
FF0FFC
FF0FFC
FFFFFC
FFFFFC
FFFFFC
FFFFFC
3FFFC0
3FFFC0
ENDCHAR
STARTCHAR c
ENCODING 99
SWIDTH 1031 0
DWIDTH 22 0
BBX 20 24 0 -8
BITMAP
00FF00
00FF00
0FFFC0
0FFFC0
3FFFC0
3FFFC0
3FFF00
3FFF00
FFC000
FFC000
FF0000
FF0000
FF0000
FF0000
FFC3C0
FFC3C0
3FFFF0
3FFFF0
3FFFF0
3FFFF0
0FFFF0
0FFFF0
00FF00
00FF00
ENDCHAR
STARTCHAR d
ENCODING 100
SWIDTH 1125 0
DWIDTH 24 0
BBX 22 24 0 -8
BITMAP
3FFC00
3FFC00
FFFFC0
FFFFC0
FFFFF0
FFFFF0
FFFFF0
FFFFF0
FF0FFC
FF0FFC
FF03FC
FF03FC
FF03FC
FF03FC
FFCFFC
FFCFFC
3FFFFC
3FFFFC
3FFFFC
3FFFFC
3FFFF0
3FFFF0
3FFFC0
3FFFC0
ENDCHAR
STARTCHAR e
ENCODING 101
SWIDTH 1031 0
DWIDTH 22 0
BBX 20 24 0 -8
BITMAP
03FFC0
03FFC0
0FFFF0
0FFFF0
0FFFF0
0FFFF0
3FFFC0
3FFFC0
3FC000
3FC000
3FFF00
3FFF00
FFFF00
FFFF00
FFFC00
FFFC00
FF0000
FF0000
FFFFC0
FFFFC0
FFFFC0
FFFFC0
3FFF00
3FFF00
ENDCHAR
STARTCHAR f
ENCODING 102
SWIDTH 937 0
DWIDTH 20 0
BBX 18 24 0 -8
BITMAP
0FFF00
0FFF00
3FFFC0
3FFFC0
3FFFC0
3FFFC0
3FFF00
3FFF00
FFC000
FFC000
FFFF00
FFFF00
FFFF00
FFFF00
FFFC00
FFFC00
FF0000
FF0000
FF0000
FF0000
FF0000
FF0000
3C0000
3C0000
ENDCHAR
STARTCHAR g
ENCODING 103
SWIDTH 1125 0
DWIDTH 24 0
BBX 22 24 0 -8
BITMAP
00FFC0
00FFC0
0FFFF0
0FFFF0
3FFFF0
3FFFF0
3FFFC0
3FFFC0
FFC000
FFC000
FF0FF0
FF0FF0
FF3FFC
FF3FFC
FF3FFC
FF3FFC
FFC3FC
FFC3FC
3FFFF0
3FFFF0
3FFFF0
3FFFF0
03FF00
03FF00
ENDCHAR
STARTCHAR h
ENCODING 104
SWIDTH 1125 0
DWIDTH 24 0
BBX 22 24 0 -8
BITMAP
3C03C0
3C03C0
FF0FC0
FF0FC0
FF0FF0
FF0FF0
FF0FF0
FF0FF0
FFFFF0
FFFFF0
FFFFF0
FFFFF0
FFFFFC
FFFFFC
FFFFFC
FFFFFC
FF03FC
FF03FC
FF03FC
FF03FC
FF03FC
FF03FC
3C00F0
3C00F0
ENDCHAR
STARTCHAR i
ENCODING 105
SWIDTH 562 0
DWIDTH 12 0
BBX 10 24 0 -8
BITMAP
3C00
3C00
FF00
FF00
FF00
FF00
FF00
FF00
FF00
FF00
FF00
FF00
FF00
FF00
FFC0
FFC0
FFC0
FFC0
FFC0
FFC0
FFC0
FFC0
3F00
3F00
ENDCHAR
STARTCHAR j
ENCODING 106
SWIDTH 843 0
DWIDTH 18 0
BBX 16 24 0 -8
BITMAP
03F0
03F0
0FF0
0FF0
0FFC
0FFC
03FC
03FC
03FF
03FF
00FF
00FF
00FF
00FF
3CFF
3CFF
FFFF
FFFF
FFFF
FFFF
FFFC
FFFC
3FF0
3FF0
ENDCHAR
STARTCHAR k
ENCODING 107
SWIDTH 1031 0
DWIDTH 22 0
BBX 20 24 0 -8
BITMAP
3C0FC0
3C0FC0
FF0FF0
FF0FF0
FF3FF0
FF3FF0
FF3FC0
FF3FC0
FFFFC0
FFFFC0
FFFF00
FFFF00
3FFFC0
3FFFC0
3FFFC0
3FFFC0
3FFFF0
3FFFF0
3FCFF0
3FCFF0
3FCFF0
3FCFF0
0F03C0
0F03C0
ENDCHAR
STARTCHAR l
ENCODING 108
SWIDTH 750 0
DWIDTH 16 0
BBX 14 24 0 -8
BITMAP
03C0
03C0
0FF0
0FF0
0FF0
0FF0
3FF0
3FF0
3FC0
3FC0
3FC0
3FC0
FF00
FF00
FF00
FF00
FFF0
FFF0
FFFC
FFFC
FFFC
FFFC
3FF0
3FF0
ENDCHAR
STARTCHAR m
ENCODING 109
SWIDTH 1312 0
DWIDTH 28 0
BBX 26 24 0 -8
BITMAP
0FC0F000
0FC0F000
3FF3FC00
3FF3FC00
3FFFFC00
3FFFFC00
3FFFFF00
3FFFFF00
3FFFFF00
3FFFFF00
FF3FFF00
FF3FFF00
FF0F3F00
FF0F3F00
FF003FC0
FF003FC0
FFC03FC0
FFC03FC0
FFC03FC0
FFC03FC0
FFC03FC0
FFC03FC0
3F000F00
3F000F00
ENDCHAR
STARTCHAR n
ENCODING 110
SWIDTH 1218 0
DWIDTH 26 0
BBX 24 24 0 -8
BITMAP
0FC03C
0FC03C
3FF0FF
3FF0FF
3FF0FF
3FF0FF
3FFCFF
3FFCFF
3FFCFF
3FFCFF
FFFCFF
FFFCFF
FF3FFF
FF3FFF
FF3FFC
FF3FFC
FF3FFC
FF3FFC
FF0FFC
FF0FFC
FF0FFC
FF0FFC
3C03F0
3C03F0
ENDCHAR
STARTCHAR o
ENCODING 111
SWIDTH 1125 0
DWIDTH 24 0
BBX 22 24 0 -8
BITMAP
00FC00
00FC00
0FFFC0
0FFFC0
3FFFF0
3FFFF0
3F0FF0
3F0FF0
FC03FC
FC03FC
FC03FC
FC03FC
FF0FFC
FF0FFC
FFFFFC
FFFFFC
FFFFFC
FFFFFC
3FFFF0
3FFFF0
3FFFF0
3FFFF0
03FF00
03FF00
ENDCHAR
STARTCHAR p
ENCODING 112
SWIDTH 1031 0
DWIDTH 22 0
BBX 20 24 0 -8
BITMAP
3FF000
3FF000
FFFF00
FFFF00
FFFFC0
FFFFC0
FC3FC0
FC3FC0
FC0FF0
FC0FF0
FF0FF0
FF0FF0
FFFFF0
FFFFF0
FFFFC0
FFFFC0
3FFF00
3FFF00
3FC000
3FC000
3FC000
3FC000
0F0000
0F0000
ENDCHAR
STARTCHAR q
ENCODING 113
SWIDTH 1218 0
DWIDTH 26 0
BBX 24 24 0 -8
BITMAP
003FC0
003FC0
03FFF0
03FFF0
0FFFFC
0FFFFC
3FF0FC
3FF0FC
3FC0FC
3FC0FC
FF0CFC
FF0CFC
FF3FFC
FF3FFC
FF3FF0
FF3FF0
FFFFFC
FFFFFC
FFFFFF
FFFFFF
3FFFFF
3FFFFF
03FC3C
03FC3C
ENDCHAR
STARTCHAR r
ENCODING 114
SWIDTH 1125 0
DWIDTH 24 0
BBX 22 24 0 -8
BITMAP
03FFC0
03FFC0
0FFFF0
0FFFF0
0FFFFC
0FFFFC
3FC3FC
3FC3FC
3F03FC
3F03FC
3F0FFC
3F0FFC
FFFFF0
FFFFF0
FFFFC0
FFFFC0
FFFFF0
FFFFF0
FF3FFC
FF3FFC
FF0FFC
FF0FFC
3C03F0
3C03F0
ENDCHAR
STARTCHAR s
ENCODING 115
SWIDTH 1031 0
DWIDTH 22 0
BBX 20 24 0 -8
BITMAP
03FF00
03FF00
0FFFC0
0FFFC0
3FFFC0
3FFFC0
3FCF00
3FCF00
3FF000
3FF000
0FFF00
0FFF00
03FFC0
03FFC0
3C3FF0
3C3FF0
FFFFF0
FFFFF0
FFFFF0
FFFFF0
FFFFC0
FFFFC0
3FFC00
3FFC00
ENDCHAR
STARTCHAR t
ENCODING 116
SWIDTH 1125 0
DWIDTH 24 0
BBX 22 24 0 -8
BITMAP
03FFF0
03FFF0
3FFFFC
3FFFFC
FFFFFC
FFFFFC
FFFFF0
FFFFF0
FFFF00
FFFF00
3CFF00
3CFF00
00FF00
00FF00
00FF00
00FF00
00FFC0
00FFC0
00FFC0
00FFC0
003FC0
003FC0
003F00
003F00
ENDCHAR
STARTCHAR u
ENCODING 117
SWIDTH 1125 0
DWIDTH 24 0
BBX 22 24 0 -8
BITMAP
3F0000
3F0000
3FC3C0
3FC3C0
FFCFF0
FFCFF0
FFCFF0
FFCFF0
FF0FFC
FF0FFC
FF03FC
FF03FC
FF03FC
FF03FC
FFCFFC
FFCFFC
FFFFFC
FFFFFC
3FFFF0
3FFFF0
3FFFF0
3FFFF0
0FFFC0
0FFFC0
ENDCHAR
STARTCHAR v
ENCODING 118
SWIDTH 1125 0
DWIDTH 24 0
BBX 22 24 0 -8
BITMAP
3F0000
3F0000
FFC0F0
FFC0F0
FFC3FC
FFC3FC
FFC3FC
FFC3FC
FFCFFC
FFCFFC
3FCFFC
3FCFFC
3FCFF0
3FCFF0
3FFFF0
3FFFF0
3FFFC0
3FFFC0
0FFFC0
0FFFC0
0FFF00
0FFF00
03FC00
03FC00
ENDCHAR
STARTCHAR w
ENCODING 119
SWIDTH 1218 0
DWIDTH 26 0
BBX 24 24 0 -8
BITMAP
3C003C
3C003C
FF00FF
FF00FF
FF00FF
FF00FF
FF00FF
FF00FF
FF00FF
FF00FF
FF3CFF
FF3CFF
3FFFFF
3FFFFF
3FFFFC
3FFFFC
3FFFFC
3FFFFC
0FFFFC
0FFFFC
0FFFF0
0FFFF0
03C3C0
03C3C0
ENDCHAR
STARTCHAR x
ENCODING 120
SWIDTH 1218 0
DWIDTH 26 0
BBX 24 24 0 -8
BITMAP
0F00F0
0F00F0
3FC3FC
3FC3FC
3FFFFC
3FFFFC
0FFFF0
0FFFF0
03FFC0
03FFC0
0FFFF0
0FFFF0
3FFFFC
3FFFFC
3FFFFC
3FFFFC
FFC3FF
FFC3FF
FF00FF
FF00FF
FF00FF
FF00FF
3C003C
3C003C
ENDCHAR
STARTCHAR y
ENCODING 121
SWIDTH 1031 0
DWIDTH 22 0
BBX 20 24 0 -8
BITMAP
0003C0
0003C0
3F0FF0
3F0FF0
FFCFF0
FFCFF0
FFFFF0
FFFFF0
3FFFF0
3FFFF0
0FFFC0
0FFFC0
03FFC0
03FFC0
00FF00
00FF00
03FF00
03FF00
03FC00
03FC00
03FC00
03FC00
00F000
00F000
ENDCHAR
STARTCHAR z
ENCODING 122
SWIDTH 1031 0
DWIDTH 22 0
BBX 20 24 0 -8
BITMAP
0FFC00
0FFC00
3FFFC0
3FFFC0
3FFFC0
3FFFC0
0FFFC0
0FFFC0
00FF00
00FF00
03FF00
03FF00
0FFC00
0FFC00
3FF000
3FF000
3FFFC0
3FFFC0
FFFFF0
FFFFF0
FFFFF0
FFFFF0
3FFFC0
3FFFC0
ENDCHAR
STARTCHAR ZEROWIDTHNON-JOINER
ENCODING 8204
SWIDTH 0 0
DWIDTH 0 0
BBX 1 1 0 0
BITMAP
00
ENDCHAR
STARTCHAR lig.f.ZEROWIDTHNON-JOINER.f
ENCODING -1
SWIDTH 19 0
DWIDTH 0 0
BBX 1 1 0 0
BITMAP
00
ENDCHAR
ENDFONT
